# xmcd CD database file
#
# Track frame offsets:
#	150
#	20127
#	47798
#	76051
#	99580
#	123284
#	157321
#	188881
#	207234
#	236314
#	254209
#	290612
#
# Disc length: 4175 seconds
#
# Revision: 0
# Processed by: cddbd v1.5.1PL0 Copyright (c) Steve Scherf et al.
# Submitted via: CDex 1.50beta10
#
DISCID=ad104d0c
DTITLE=AA.VV. - The Best of Blue Note at Umbria Jazz 1973/2005 - CD2
DYEAR=2005
DGENRE=Jazz
TTITLE0=Michel Petrucciani - Contradictions (live)
TTITLE1=Cassandra Wilson - You Don't Know What Love Is
TTITLE2=John Scofield - Since You Asked
TTITLE3=Stefano Di Battista - Anastasia
TTITLE4=Kurt Elling - (I Love You) For Sentimental Reasons (live)
TTITLE5=Dianne Reeves - Love For Sale (live)
TTITLE6=Pat Martino - Oleo (live)
TTITLE7=Bill Charlap Trio - Cool
TTITLE8=Paolo Fresu - Kosmopolites
TTITLE9=Nicola Conte - A Time For Spring
TTITLE10=Terence Blanchard - The Source
TTITLE11=Joe Lovano - Consummation
EXTD=YEAR: 2005
EXTT0=
EXTT1=
EXTT2=
EXTT3=
EXTT4=
EXTT5=
EXTT6=
EXTT7=
EXTT8=
EXTT9=
EXTT10=
EXTT11=
PLAYORDER=
